%YAML 1.1
--- !Mesh &1
name: quad
guid: {a: 4703423830741867948, b: 3712115331714583968}
boundingBox: {min: {x: -1, y: -1, z: 0}, max: {x: 1, y: 1, z: 0}}
dontRecalculateBounds: false
vertices:
  - -1
  - -1
  - 0
  - 1
  - 0
  - 0
  - 1
  - 0
  - 0
  - 1
  - -1
  - 0
  - 1
  - 0
  - 0
  - 1
  - 1
  - 0
  - 1
  - 1
  - 0
  - 1
  - 0
  - 0
  - 1
  - 1
  - 1
  - -1
  - 1
  - 0
  - 1
  - 0
  - 0
  - 1
  - 0
  - 1
instanceDataStride: 0
materialIndex: 4294967295
vertexAttribs:
  - __class: VertexAttribDesc
    name: ""
    guid: {a: 16089039261260335568, b: 12389611830059911556}
    semantic:
      __class: VertexAttribType
      value: POSITION
    bindingIndex: 0
    offset: 0
    componentCount: 3
  - __class: VertexAttribDesc
    name: ""
    guid: {a: 813744269939402420, b: 13578287610027218343}
    semantic:
      __class: VertexAttribType
      value: COLOR
    bindingIndex: 0
    offset: 12
    componentCount: 4
  - __class: VertexAttribDesc
    name: ""
    guid: {a: 7587204774189358047, b: 14877263687945711011}
    semantic:
      __class: VertexAttribType
      value: TEXCOORD0
    bindingIndex: 0
    offset: 28
    componentCount: 2
submeshes:
  - __class: SubMesh
    name: ""
    guid: {a: 10324282932800797038, b: 3072262094683017625}
    useIndices32: false
    boundingBox: {min: {x: -1, y: -1, z: 0}, max: {x: 1, y: 1, z: 0}}
    indices16: [0, 1, 2, 3]
    indicesCount: 4
    instanceCount: 0
    primitive:
      __class: Primitive
      value: TRIANGLE_FAN
clearAfterUpload: false
